<svg xmlns="http://www.w3.org/2000/svg" viewBox="0 0 900 700"><defs><linearGradient id="g" x1="0" x2="1"><stop stop-color="#242925"/><stop offset="1" stop-color="#111413"/></linearGradient></defs><rect width="900" height="700" fill="url(#g)"/><circle cx="660" cy="180" r="150" fill="#d9ff35" opacity=".12"/><rect x="80" y="500" width="740" height="8" rx="4" fill="#d9ff35" opacity=".5"/><g fill="#d9ff35"><rect x="120" y="290" width="18" height="210"/><rect x="155" y="260" width="28" height="240"/><rect x="650" y="260" width="28" height="240"/><rect x="690" y="290" width="18" height="210"/></g><g fill="#f0f2ed"><circle cx="420" cy="180" r="52"/><path d="M370 245 Q420 220 470 245 L520 450 Q425 500 330 450Z"/><path d="M370 260 L260 420 290 440 405 330Z"/><path d="M470 260 L580 420 550 440 435 330Z"/></g><text x="450" y="610" fill="#9da3a1" font-family="Arial" font-size="30" text-anchor="middle" letter-spacing="7">IRONCORE FITNESS</text></svg>